# xmcd
#
# Track frame offsets:
#	150
#	15269
#	28814
#	39683
#	53075
#	70038
#	88213
#	102398
#	114031
#	128921
#	141415
#	155582
#	185924
#
# Disc length: 4440 seconds
#
# Revision: 0
# Processed by: cddbd v1.5.1PL2 Copyright (c) Steve Scherf et al.
# Submitted via: EasyCDDAExtractor 9.0.0.1
#
DISCID=b211560d
DTITLE=Various Artist - Dead Ringer Band  Hopeville
DYEAR=1900
DGENRE=Country
TTITLE0=Dead Ringer Band - Born To Run
TTITLE1=Dead Ringer Band - Sometimes She Forgets
TTITLE2=Dead Ringer Band - T.B. Blues
TTITLE3=Dead Ringer Band - Hello Hopeville
TTITLE4=Dead Ringer Band - Speed Of The Sound Of Loneliness
TTITLE5=Dead Ringer Band - Return Of The Grievous Angel
TTITLE6=Dead Ringer Band - I Wish It Would Rain
TTITLE7=Dead Ringer Band - Crazy Heart
TTITLE8=Dead Ringer Band - White Frieght Liner Blues
TTITLE9=Dead Ringer Band - He Thinks I Still Care
TTITLE10=Dead Ringer Band - Leaving Louisiana In Broad Daylight
TTITLE11=Dead Ringer Band - Something About What Happens When We Talk
TTITLE12=Data - Data
EXTD=
EXTT0=
EXTT1=
EXTT2=
EXTT3=
EXTT4=
EXTT5=
EXTT6=
EXTT7=
EXTT8=
EXTT9=
EXTT10=
EXTT11=
EXTT12=
PLAYORDER=
